<svg width="32" height="32" viewBox="0 0 32 32" fill="none" xmlns="http://www.w3.org/2000/svg">
<path d="M16 11.8345C13.7063 11.8345 11.8344 13.7063 11.8344 16.0001C11.8344 18.2938 13.7063 20.1657 16 20.1657C18.2938 20.1657 20.1656 18.2938 20.1656 16.0001C20.1656 13.7063 18.2938 11.8345 16 11.8345ZM28.4938 16.0001C28.4938 14.2751 28.5094 12.5657 28.4125 10.8438C28.3156 8.84385 27.8594 7.06885 26.3969 5.60635C24.9313 4.14072 23.1594 3.6876 21.1594 3.59072C19.4344 3.49385 17.725 3.50947 16.0031 3.50947C14.2781 3.50947 12.5688 3.49385 10.8469 3.59072C8.84688 3.6876 7.07188 4.14385 5.60938 5.60635C4.14375 7.07197 3.69062 8.84385 3.59375 10.8438C3.49687 12.5688 3.5125 14.2782 3.5125 16.0001C3.5125 17.722 3.49687 19.4345 3.59375 21.1563C3.69062 23.1563 4.14687 24.9313 5.60938 26.3938C7.075 27.8595 8.84688 28.3126 10.8469 28.4095C12.5719 28.5063 14.2813 28.4907 16.0031 28.4907C17.7281 28.4907 19.4375 28.5063 21.1594 28.4095C23.1594 28.3126 24.9344 27.8563 26.3969 26.3938C27.8625 24.9282 28.3156 23.1563 28.4125 21.1563C28.5125 19.4345 28.4938 17.7251 28.4938 16.0001ZM16 22.4095C12.4531 22.4095 9.59063 19.547 9.59063 16.0001C9.59063 12.4532 12.4531 9.59072 16 9.59072C19.5469 9.59072 22.4094 12.4532 22.4094 16.0001C22.4094 19.547 19.5469 22.4095 16 22.4095ZM22.6719 10.8251C21.8438 10.8251 21.175 10.1563 21.175 9.32822C21.175 8.5001 21.8438 7.83135 22.6719 7.83135C23.5 7.83135 24.1688 8.5001 24.1688 9.32822C24.169 9.52487 24.1305 9.71962 24.0553 9.90134C23.9802 10.0831 23.8699 10.2482 23.7309 10.3872C23.5918 10.5263 23.4267 10.6365 23.245 10.7117C23.0633 10.7868 22.8685 10.8253 22.6719 10.8251Z" fill="#333333"/>
</svg>
