<svg width="32" height="32" viewBox="0 0 32 32" fill="none" xmlns="http://www.w3.org/2000/svg">
<g clip-path="url(#clip0_1_161)">
<path d="M27.355 14.0439C26.861 14.0439 26.316 14.4159 26.316 15.3049H28.355C28.355 14.4159 27.839 14.0439 27.355 14.0439ZM20.833 14.1889C20.377 14.1889 20.094 14.3499 19.889 14.5779L19.9 17.5109C20.094 17.7169 20.372 17.8829 20.833 17.8829C21.561 17.8829 22.05 17.0889 22.05 16.0279C22.05 14.9949 21.55 14.1839 20.833 14.1889ZM29.333 3.55591H2.666C1.95875 3.55617 1.28054 3.83725 0.780439 4.33735C0.280337 4.83745 -0.000734891 5.51566 -0.000999928 6.22291V25.7789C-0.000734891 26.4862 0.280337 27.1644 0.780439 27.6645C1.28054 28.1646 1.95875 28.4456 2.666 28.4459H29.333C30.0403 28.4456 30.7185 28.1646 31.2186 27.6645C31.7187 27.1644 31.9997 26.4862 32 25.7789V6.22291C31.9997 5.51566 31.7187 4.83745 31.2186 4.33735C30.7185 3.83725 30.0403 3.55617 29.333 3.55591ZM6.789 17.3949C6.789 18.8169 5.661 19.6229 4.017 19.6339C3.27522 19.632 2.54161 19.4789 1.861 19.1839V17.2999C2.528 17.6559 3.367 17.9279 4.022 17.9279C4.461 17.9279 4.778 17.8119 4.778 17.4449C4.778 16.5009 1.778 16.8559 1.778 14.6729C1.778 13.2729 2.845 12.4389 4.445 12.4389C5.101 12.4389 5.751 12.5389 6.406 12.7999V14.6559C5.80004 14.3384 5.12892 14.1653 4.445 14.1499C4.028 14.1499 3.773 14.2719 3.773 14.5779C3.773 15.4669 6.79 15.0449 6.79 17.3949H6.789ZM10.611 14.2499H9.111V17.0559C9.111 18.2169 10.361 17.8559 10.611 17.7559V19.3609C10.35 19.5059 9.872 19.6219 9.228 19.6219C8.056 19.6219 7.178 18.7609 7.178 17.5939L7.189 11.2659L9.117 10.8549V12.5659H10.611V14.2499ZM14.722 14.3829C14.472 14.2999 13.683 14.1829 13.216 14.7939V19.4829H11.244V12.5659H12.95L13.072 13.1489C13.533 12.2989 14.455 12.4709 14.716 12.5659H14.722V14.3829ZM17.172 19.4829H15.188V12.5659H17.172V19.4829ZM17.172 11.5439L15.188 11.9659V10.3609L17.172 9.93891V11.5439ZM21.289 19.6279C20.6 19.6279 20.178 19.3339 19.895 19.1279L19.889 21.3609L17.917 21.7779V12.5669H19.656L19.756 13.0559C20.028 12.8059 20.528 12.4389 21.3 12.4389C22.684 12.4389 23.989 13.6889 23.989 15.9839C23.989 18.4899 22.7 19.6229 21.289 19.6289V19.6279ZM30.2 16.7669H26.339C26.428 17.6889 27.105 17.9609 27.872 17.9609C28.655 17.9609 29.272 17.7939 29.811 17.5219V19.1109C29.272 19.4049 28.566 19.6219 27.622 19.6219C25.7 19.6219 24.355 18.4159 24.355 16.0389C24.355 14.0279 25.494 12.4339 27.372 12.4339C29.244 12.4339 30.222 14.0279 30.222 16.0499C30.222 16.2439 30.205 16.6559 30.2 16.7669Z" fill="#333333"/>
</g>
<defs>
<clipPath id="clip0_1_161">
<rect width="32" height="32" fill="white"/>
</clipPath>
</defs>
</svg>
