<svg width="67" height="38" viewBox="0 0 67 38" fill="none" xmlns="http://www.w3.org/2000/svg">
<path d="M9.64482 5.50508L11.6657 8.49178C11.6692 8.49696 11.6701 8.50348 11.6681 8.5094L11.1664 9.99214C11.1647 9.99717 11.1611 10.0013 11.1563 10.0037L9.13868 10.9977C9.13556 10.9992 9.1329 11.0015 9.13095 11.0044L7.1075 13.9949C7.10527 13.9982 7.10407 14.0021 7.10407 14.0061V15.9916C7.10407 15.997 7.10192 16.0021 7.09811 16.0059L6.59762 16.499L6.59574 16.5011L5.08248 18.4891C5.0775 18.4957 5.07704 18.5046 5.08132 18.5117L6.59076 20.9904C6.59439 20.9964 6.60087 21 6.60784 21H8.62646H12.1705C12.1758 21 12.1808 21.0021 12.1845 21.0058L13.687 22.4862C13.6948 22.4938 13.7073 22.4938 13.7151 22.4862L14.7125 21.5035C14.7148 21.5012 14.7176 21.4995 14.7208 21.4986L18.0368 20.5L21.3044 19.004C21.3099 19.0015 21.3162 19.0015 21.3215 19.0042L23.3402 19.9987C23.342 19.9996 23.3439 20.0002 23.3458 20.0005L26.3709 20.4972C26.3806 20.4988 26.3877 20.5072 26.3877 20.517V22.9916C26.3877 22.997 26.3898 23.0021 26.3936 23.0059L27.3992 23.9967C27.4014 23.9989 27.4031 24.0015 27.4041 24.0045L27.9087 25.496C27.9096 25.4986 27.9099 25.5014 27.9097 25.5042L27.733 27.4775C27.732 27.4895 27.7207 27.4978 27.709 27.4953L25.3969 27.0051C25.3844 27.0025 25.3727 27.012 25.3727 27.0247V28.9967C25.3727 28.9989 25.3724 29.0011 25.3717 29.0031L24.8668 30.4955C24.8658 30.4985 24.8641 30.5011 24.8619 30.5033L23.3533 31.9897C23.3471 31.9959 23.3456 32.0053 23.3495 32.013L24.3477 33.9801C24.3531 33.9907 24.3665 33.9943 24.3765 33.9877L25.8752 33.0033C25.8785 33.0011 25.8823 33 25.8862 33H27.8994C27.9061 33 27.9123 32.9967 27.916 32.9912L28.9239 31.5016C28.9246 31.5006 28.9254 31.4995 28.9264 31.4986L30.4459 30.0014C30.4469 30.0005 30.4477 29.9994 30.4485 29.9984L31.4612 28.5016C31.4619 28.5006 31.4628 28.4995 31.4637 28.4986L32.976 27.0086C32.9813 27.0033 32.9891 27.0015 32.9963 27.0038L34.4933 27.4955C34.5015 27.4982 34.5071 27.5058 34.5071 27.5145V28.4916C34.5071 28.497 34.5092 28.5021 34.513 28.5059L35.5161 29.4942C35.5199 29.4979 35.5249 29.5 35.5302 29.5H38.0533C38.0572 29.5 38.061 29.5011 38.0643 29.5033L39.5524 30.4808C39.5654 30.4893 39.5642 30.5086 39.5503 30.5155L37.5547 31.4986C37.5528 31.4995 37.5511 31.5008 37.5495 31.5023L36.0528 32.977C36.0421 32.9875 36.0464 33.0056 36.0606 33.0102L37.5488 33.499C37.5508 33.4997 37.5529 33.5 37.555 33.5H39.5617C39.5727 33.5 39.5817 33.509 39.5817 33.52V34.9916C39.5817 34.997 39.5795 35.0021 39.5757 35.0059L38.5868 35.9802C38.577 35.9899 38.5797 36.0064 38.592 36.0124L40.5893 36.9964C40.594 36.9987 40.5994 36.9991 40.6044 36.9975L42.1125 36.5021C42.1167 36.5008 42.1203 36.498 42.1228 36.4943L43.128 35.0088C43.1317 35.0033 43.1379 35 43.1445 35H44.6481C44.6534 35 44.6584 34.9979 44.6621 34.9942L45.1579 34.5058C45.1617 34.5021 45.1667 34.5 45.172 34.5H46.1705C46.1758 34.5 46.1808 34.5021 46.1845 34.5058L46.6803 34.9942C46.6841 34.9979 46.6891 35 46.6944 35H48.2003C48.2056 35 48.2106 34.9979 48.2144 34.9942L49.2175 34.0059C49.2213 34.0021 49.2235 33.997 49.2235 33.9916V32.0124C49.2235 32.0048 49.2191 31.9979 49.2123 31.9945L48.215 31.5032C48.2108 31.5011 48.2061 31.5006 48.2015 31.5017L47.1936 31.7448L46.1859 31.9982C46.1813 31.9994 46.1763 31.9988 46.1721 31.9967L45.6732 31.7458C45.6719 31.7452 45.6707 31.7444 45.6695 31.7434L44.1562 30.506C44.1515 30.5022 44.1488 30.4965 44.1488 30.4905V29.0108C44.1488 29.0041 44.1522 28.9978 44.1579 28.9941L45.669 28.0015C45.6705 28.0005 45.6721 27.9997 45.6738 27.9992L47.1936 27.5L49.2235 26.5L50.7409 25.5033C50.7441 25.5011 50.7479 25.5 50.7518 25.5H53.7784C53.7859 25.5 53.7928 25.4958 53.7962 25.489L54.2974 24.5013L54.2986 24.4986L54.804 23.0045C54.805 23.0015 54.8067 22.9989 54.8089 22.9967L55.8146 22.0058C55.8184 22.0021 55.8234 22 55.8287 22H56.3233C56.3264 22 56.3294 22.0007 56.3321 22.0021L57.3356 22.4964C57.3402 22.4987 57.3457 22.4991 57.3506 22.4975L58.8515 22.0045C58.8597 22.0018 58.8653 21.9942 58.8653 21.9855V21.5025C58.8653 21.5008 58.8655 21.4992 58.8659 21.4976L59.3709 19.5073C59.3721 19.5026 59.3715 19.4976 59.3693 19.4933L58.8659 18.5013L58.8648 18.4986L58.3628 17.0146C58.3598 17.006 58.3631 16.9965 58.3707 16.9915L59.8712 16.0059C59.8768 16.0022 59.8802 15.9959 59.8802 15.9892V14.0145C59.8802 14.0058 59.8746 13.9982 59.8664 13.9955L58.3578 13.5L56.8354 13L54.8079 12.5006C54.8064 12.5002 54.8047 12.5 54.8031 12.5H53.2931C53.2868 12.5 53.281 12.4971 53.2772 12.4921L51.7683 10.5099C51.7637 10.5038 51.756 10.5009 51.7486 10.5024L49.2286 10.999C49.2252 10.9997 49.2218 10.9994 49.2185 10.9984L47.7041 10.501C47.7021 10.5003 47.7 10.5 47.6979 10.5H45.6912C45.6802 10.5 45.6712 10.491 45.6712 10.48V8.50613C45.6712 8.50214 45.67 8.49823 45.6678 8.49492L44.6609 7.00682C44.658 7.00245 44.6534 6.99943 44.6482 6.99841L42.1304 6.50224C42.1233 6.50085 42.1176 6.49581 42.1153 6.48903L41.6155 5.01186C41.6131 5.00461 41.615 4.99659 41.6205 4.99121L43.1106 3.52302C43.1212 3.51251 43.117 3.49444 43.1028 3.48977L41.621 3.00312C41.6151 3.00116 41.6103 2.99649 41.6083 2.99053L41.1078 1.51097C41.1055 1.50419 41.0997 1.49915 41.0927 1.49776L38.5687 1.00038C38.5674 1.00013 38.5661 1 38.5648 1H37.5565C37.5534 1 37.5504 1.0007 37.5476 1.00206L36.541 1.49799C36.5383 1.49931 36.5359 1.50122 36.5341 1.50358L35.7579 2.49235C35.7541 2.49718 35.7483 2.5 35.7421 2.5H35.0145H32.9893C32.9863 2.5 32.9832 2.5007 32.9805 2.50206L30.966 3.4945C30.9591 3.49787 30.9548 3.50482 30.9548 3.51244V6.46293C30.9548 6.47885 30.9371 6.48839 30.9238 6.47965L29.4374 5.50328C29.4342 5.50114 29.4303 5.5 29.4264 5.5H27.916C27.9121 5.5 27.9083 5.49886 27.905 5.49672L26.3957 4.50529C26.3906 4.50195 26.3843 4.50111 26.3785 4.50301L24.8653 5L22.8445 5.49775C22.8388 5.49918 22.8326 5.49795 22.8279 5.49442L20.8093 4.00278C20.8068 4.00095 20.804 3.99972 20.801 3.99918L15.2269 3.00061C15.2246 3.0002 15.2223 3.00019 15.2201 3.00056L12.1808 3.49965C12.1794 3.49988 12.178 3.50026 12.1767 3.50078L9.65405 4.49501C9.64641 4.49802 9.64138 4.5054 9.64138 4.51361V5.49387C9.64138 5.49786 9.64258 5.50177 9.64482 5.50508Z" stroke="url(#paint0_linear_1_177)" stroke-width="2"/>
<path d="M17.3145 7.81055V27H13.4766V19.0166H5.63965V27H1.78711V7.81055H5.63965V16.0576H13.4766V7.81055H17.3145ZM32.7246 15.5889V18.5625H24.7705V24.041H34.0723V27H20.918V7.81055H34.043V10.7695H24.7705V15.5889H32.7246ZM40.2686 7.81055V24.041H48.8086V27H36.416V7.81055H40.2686ZM54.8877 10.7695V17.0684H58.6816C59.7363 17.0684 60.5469 16.7852 61.1133 16.2188C61.6797 15.6523 61.9629 14.8955 61.9629 13.9482C61.9629 12.9912 61.6797 12.2246 61.1133 11.6484C60.5469 11.0625 59.7363 10.7695 58.6816 10.7695H54.8877ZM58.6816 20.042H54.8877V27H51.0352V7.81055H58.6816C60.8789 7.81055 62.6123 8.36719 63.8818 9.48047C65.1611 10.584 65.8008 12.0684 65.8008 13.9336C65.8008 15.7891 65.166 17.2734 63.8965 18.3867C62.627 19.4902 60.8887 20.042 58.6816 20.042Z" fill="#2D2D2D"/>
<path fill-rule="evenodd" clip-rule="evenodd" d="M30 28.8767L30.6329 27.9412C30.6707 27.8854 30.7139 27.8335 30.7618 27.7863L32.2741 26.2962C32.5462 26.0281 32.9454 25.9345 33.3083 26.0537L34.8053 26.5454C35.224 26.6829 35.5071 27.0738 35.5071 27.5145V28.0814L35.9319 28.5H38.0533C38.2523 28.5 38.447 28.5582 38.6133 28.6674L40.1015 29.645C40.7609 30.0781 40.7 31.0638 39.9922 31.4125L38.1386 32.3256L37.9617 32.5H39.5617C40.125 32.5 40.5817 32.9566 40.5817 33.52V34.9916C40.5817 35.2647 40.4721 35.5265 40.2776 35.7182L40.2709 35.7247L40.6724 35.9225L41.4823 35.6565L42.2997 34.4484C42.4895 34.168 42.806 34 43.1445 34H44.2464L44.4561 33.7934C44.6469 33.6054 44.9041 33.5 45.172 33.5H46.1705C46.4384 33.5 46.6955 33.6054 46.8864 33.7934L47.096 34H47.7987L48.2235 33.5814V32.6221L48.0913 32.557L47.4374 32.7146L47.4281 32.7169L46.4297 32.968C46.1924 33.0276 45.9415 33 45.7228 32.89L45.224 32.6392C45.1572 32.6057 45.0944 32.5649 45.0365 32.5176L43.5232 31.2801C43.2863 31.0864 43.1488 30.7965 43.1488 30.4905V29.0108C43.1488 28.6673 43.3217 28.3468 43.6088 28.1582L45.12 27.1656C45.1951 27.1163 45.2764 27.0771 45.3617 27.0491L46.8148 26.5718L48.7261 25.6302L50 24.7935V27.1863L49.7725 27.3358L49.7208 27.3697L49.6654 27.397L47.6356 28.397L47.5725 28.4281L47.5057 28.45L46.1093 28.9086L45.1488 29.5395V30.0259L46.2189 30.9009L46.2956 30.9395L46.9498 30.775L46.9591 30.7727L46.9591 30.7727L47.967 30.5296C48.1989 30.4736 48.443 30.5007 48.657 30.6061L49.6542 31.0974C49.7911 31.1648 49.9082 31.2605 50 31.3753V34.6287C49.975 34.66 49.9481 34.6898 49.9194 34.7182L48.9162 35.7065C48.7254 35.8946 48.4683 36 48.2003 36H46.6944C46.4265 36 46.1693 35.8946 45.9785 35.7065L45.7688 35.5H45.5737L45.364 35.7065C45.1732 35.8946 44.916 36 44.6481 36H43.6647L43.6646 36.0001H37.5807C37.5788 35.7381 37.6768 35.473 37.885 35.2679L38.5817 34.5814V34.5H37.555C37.4469 34.5 37.3395 34.4828 37.2368 34.449L35.7486 33.9603C35.0232 33.722 34.8071 32.8005 35.351 32.2646L36.8477 30.7899C36.9254 30.7133 37.0149 30.6497 37.1128 30.6015L37.3189 30.5H35.5302C35.2623 30.5 35.0051 30.3946 34.8143 30.2065L33.8112 29.2182C33.6166 29.0265 33.5071 28.7647 33.5071 28.4916V28.2241L33.2521 28.1403L32.2349 29.1426L31.2767 30.5587C31.2389 30.6145 31.1958 30.6664 31.1478 30.7137L30 31.8446V28.8767Z" fill="#FDFF23"/>
<path fill-rule="evenodd" clip-rule="evenodd" d="M56 21H56.3233C56.4796 21 56.6338 21.0359 56.7741 21.105L57.4186 21.4226L57.8929 21.2668L57.8966 21.2516L58.3111 19.6178L57.9742 18.9538C57.9521 18.9103 57.9332 18.8653 57.9175 18.8191L57.6404 18H59.7518L59.7895 18.1115L60.2611 19.0408C60.3728 19.2609 60.4009 19.514 60.3402 19.7532L59.8653 21.6249V21.9855C59.8653 22.4262 59.5822 22.8171 59.1635 22.9546L57.6627 23.4475C57.4091 23.5308 57.133 23.5114 56.8936 23.3934L56.1852 23.0445L56 23.227V21Z" fill="#FDFF23"/>
<path fill-rule="evenodd" clip-rule="evenodd" d="M57.9976 19L57.9742 18.9538C57.9521 18.9103 57.9332 18.8653 57.9176 18.8191L57.4155 17.3351C57.2667 16.8953 57.4337 16.4106 57.8217 16.1557L58.8802 15.4604V15H60.8802V15.9892C60.8802 16.3327 60.7073 16.6531 60.4202 16.8417L59.5527 17.4116L59.7895 18.1115L60.2404 19H57.9976Z" fill="#0085FF"/>
<path fill-rule="evenodd" clip-rule="evenodd" d="M6.71154 18L6.2832 18.5627L7.15845 20H8.62643H12.1705C12.4384 20 12.6955 20.1054 12.8864 20.2934L13 20.4054V23.2128C12.995 23.2081 12.9901 23.2033 12.9852 23.1985L11.7688 22H8.62643H6.60782C6.25192 22 5.92175 21.8145 5.73663 21.5105L4.22719 19.0318C4.03331 18.7134 4.03022 18.3184 4.20999 18H6.71154Z" fill="#FDFF23"/>
<path fill-rule="evenodd" clip-rule="evenodd" d="M8.10401 16C8.10179 16.2701 7.9925 16.5285 7.79993 16.7182L7.34916 17.1623L6.2832 18.5627L6.54949 19H4.20862C4.01043 18.6466 4.03993 18.2077 4.28675 17.8835L5.72043 16H8.10401Z" fill="#0085FF"/>
<defs>
<linearGradient id="paint0_linear_1_177" x1="32.4772" y1="1" x2="32.4772" y2="37" gradientUnits="userSpaceOnUse">
<stop offset="0.471354" stop-color="#0085FF"/>
<stop offset="0.471354" stop-color="#FCFF22"/>
<stop offset="0.494727" stop-color="#FCFF22"/>
</linearGradient>
</defs>
</svg>
